HIERARCHY
ROOT Hips
{
	OFFSET -3.958830 18.904000 13.208200
	CHANNELS 6 Xposition Yposition Zposition Zrotation Yrotation Xrotation 
	JOINT LHipJoint
	{
		OFFSET 0.000000 0.000000 0.000000
		CHANNELS 3 Zrotation Yrotation Xrotation
		JOINT LeftUpLeg
		{
			OFFSET 1.800000 -1.400000 0.085000
			CHANNELS 3 Zrotation Yrotation Xrotation
			JOINT LeftLeg
			{
				OFFSET 2.215000 -6.000000 0.000000
				CHANNELS 3 Zrotation Yrotation Xrotation
				JOINT LeftFoot
				{
					OFFSET 2.500000 -6.900000 0.000000
					CHANNELS 3 Zrotation Yrotation Xrotation
					JOINT LeftToeBase
					{
						OFFSET 0.200000 -0.500000 1.950000
						CHANNELS 3 Zrotation Yrotation Xrotation
						End Site
						{
							OFFSET 0.000000 0.000000 0.000000
						}
					}
				}
			}
		}
	}
	JOINT RHipJoint
	{
		OFFSET 0.000000 0.000000 0.000000
		CHANNELS 3 Zrotation Yrotation Xrotation
		JOINT RightUpLeg
		{
			OFFSET -1.800000 -1.400000 0.085000
			CHANNELS 3 Zrotation Yrotation Xrotation
			JOINT RightLeg
			{
				OFFSET -2.215000 -6.000000 0.000000
				CHANNELS 3 Zrotation Yrotation Xrotation
				JOINT RightFoot
				{
					OFFSET -2.500000 -6.900000 0.000000
					CHANNELS 3 Zrotation Yrotation Xrotation
					JOINT RightToeBase
					{
						OFFSET -0.200000 -0.500000 1.950000
						CHANNELS 3 Zrotation Yrotation Xrotation
						End Site
						{
							OFFSET 0.000000 0.000000 0.000000
						}
					}
				}
			}
		}
	}
	JOINT LowerBack
	{
		OFFSET 0.000000 0.000000 0.000000
		CHANNELS 3 Zrotation Yrotation Xrotation
		JOINT Spine
		{
			OFFSET -0.087000 1.940000 -0.288900
			CHANNELS 3 Zrotation Yrotation Xrotation
			JOINT Spine1
			{
				OFFSET 0.000000 1.950000 0.060000
				CHANNELS 3 Zrotation Yrotation Xrotation
				JOINT Neck
				{
					OFFSET 0.000000 0.000000 0.000000
					CHANNELS 3 Zrotation Yrotation Xrotation
					JOINT Neck1
					{
						OFFSET 0.000000 1.600000 0.340000
						CHANNELS 3 Zrotation Yrotation Xrotation
						JOINT Head
						{
							OFFSET 0.000000 1.667000 -0.240000
							CHANNELS 3 Zrotation Yrotation Xrotation
							End Site
							{
								OFFSET 0.000000 0.000000 0.000000
							}
						}
					}
				}
				JOINT LeftShoulder
				{
					OFFSET 0.000000 0.000000 0.000000
					CHANNELS 3 Zrotation Yrotation Xrotation
					JOINT LeftArm
					{
						OFFSET 2.700000 1.550000 -0.730000
						CHANNELS 3 Zrotation Yrotation Xrotation
						JOINT LeftForeArm
						{
							OFFSET 5.450000 0.000000 0.000000
							CHANNELS 3 Zrotation Yrotation Xrotation
							JOINT LeftHand
							{
								OFFSET 3.450000 0.000000 0.000000
								CHANNELS 3 Zrotation Yrotation Xrotation
								JOINT LeftHandIndex1
								{
									OFFSET 0.750000 0.000000 0.000000
									CHANNELS 3 Zrotation Yrotation Xrotation
									End Site
									{
										OFFSET 0.000000 0.000000 0.000000
									}
								}
							}
						}
					}
				}
				JOINT RightShoulder
				{
					OFFSET 0.000000 0.000000 0.000000
					CHANNELS 3 Zrotation Yrotation Xrotation
					JOINT RightArm
					{
						OFFSET -2.700000 1.550000 -0.730000
						CHANNELS 3 Zrotation Yrotation Xrotation
						JOINT RightForeArm
						{
							OFFSET -5.450000 0.000000 0.000000
							CHANNELS 3 Zrotation Yrotation Xrotation
							JOINT RightHand
							{
								OFFSET -3.450000 0.000000 0.000000
								CHANNELS 3 Zrotation Yrotation Xrotation
								JOINT RightHandIndex1
								{
									OFFSET -0.750000 0.000000 0.000000
									CHANNELS 3 Zrotation Yrotation Xrotation
									End Site
									{
										OFFSET 0.000000 0.000000 0.000000
									}
								}
							}
						}
					}
				}
			}
		}
	}
}
MOTION
Frames: 11
Frame Time: 0.016667
0.968010 17.123830 -1.659850 -4.446277 6.618976 -3.606661 -15.023580 13.550531 2.825512 7.900063 0.376635 -0.058226 -2.972786 5.045062 8.512827 0.304822 3.640600 3.227111 0.232160 0.288940 0.316400 18.227328 -11.272022 3.536340 -2.046744 -1.713317 1.180250 3.928561 -3.817850 1.604568 -0.506259 -3.760976 2.973579 0.006150 -0.291710 0.007440 -3.860772 -1.009663 -8.349722 13.358359 1.958134 10.319110 -3.038048 3.638749 10.299776 3.163517 -1.135411 -19.855159 -5.160840 -3.304445 50.560644 -1.440310 -3.960170 -3.907470 -14.746414 -20.981607 9.713251 -14.819383 5.993834 -3.767551 -59.803799 -53.342637 28.064900 -3.204108 3.528070 0.190770 -0.240830 0.272110 -0.082470 9.019790 25.585729 15.806917 24.456512 -5.871312 -6.000307 46.820351 37.261409 10.250248 2.634102 -1.675340 0.151580 -0.111150 -0.207500 0.024610 
0.989350 17.121490 -1.672550 -4.581777 6.650349 -3.994473 -15.000756 13.535221 2.820908 8.379287 0.450144 0.011469 -3.792543 5.334657 8.904805 0.301457 3.757924 3.190831 0.224040 0.279660 0.302470 18.242720 -11.299051 3.510286 -2.755475 -1.727486 1.189580 5.076112 -4.069834 2.144663 -0.502941 -3.832013 2.959593 0.009490 -0.274460 -0.002140 -3.918745 -0.954885 -8.336042 13.985266 2.025578 10.692493 -3.377654 3.848274 10.794623 3.170920 -1.128355 -19.884011 -5.106235 -3.444419 50.285179 -1.167790 -4.294900 -4.045430 -14.360476 -21.316132 9.557663 -14.366701 5.422739 -4.023342 -56.483263 -53.277278 26.294903 -3.201007 3.501229 0.194350 -0.233010 0.256640 -0.082530 8.589752 25.940938 15.990698 24.100523 -5.793661 -6.059505 45.026931 36.840778 9.574955 2.605925 -1.649089 0.136010 -0.092800 -0.194270 0.022040 
1.022710 17.118500 -1.684070 -4.380872 7.033406 -4.479476 -14.992520 13.518089 2.813557 8.052166 0.547344 0.325560 -3.785498 5.417082 9.377827 0.319922 3.791220 3.187048 0.210890 0.271830 0.274340 18.243432 -11.379607 3.462569 -3.535643 -1.709380 1.082183 5.630308 -4.280635 3.120722 -0.488696 -3.890729 2.939529 0.007390 -0.251610 -0.004360 -3.945890 -0.822244 -8.297981 13.893085 2.300551 10.984372 -3.241885 4.100814 11.476274 2.961762 -1.090996 -19.894895 -4.969955 -3.947271 49.873555 -0.482120 -5.306620 -3.690750 -13.774612 -21.741421 9.329327 -13.574086 4.591178 -4.304601 -50.873674 -52.808217 23.320367 -3.186466 3.490496 0.173370 -0.225880 0.240220 -0.075740 8.470698 26.355332 16.212082 22.578750 -5.862833 -5.992852 43.990480 37.338546 9.535783 2.587417 -1.661831 0.137460 -0.087370 -0.185910 0.040410 
1.061810 17.114340 -1.705630 -4.346272 7.451369 -5.101233 -14.983198 13.482116 2.798199 7.567893 0.631228 0.748409 -3.488983 5.422390 9.854601 0.314360 3.824447 3.180134 0.197850 0.254970 0.250460 18.254304 -11.486392 3.397701 -3.725001 -1.679902 0.823351 5.415048 -4.414649 4.502304 -0.458006 -3.923232 2.921372 0.010340 -0.228680 0.005180 -3.989517 -0.610416 -8.223058 14.024719 2.690039 11.355169 -3.141859 4.437592 12.495060 2.889504 -0.776587 -19.703211 -4.176007 -4.949885 48.627060 -0.473530 -6.277140 -3.331010 -13.053604 -22.240436 8.919433 -12.333912 3.089944 -4.470712 -44.081918 -51.150959 19.456588 -3.190092 3.473800 0.149490 -0.206060 0.214030 -0.075470 7.903217 26.668734 16.376256 21.317876 -5.625855 -5.967694 40.693200 37.563771 8.799582 2.547762 -1.670274 0.134360 -0.093320 -0.169750 0.048650 
1.110450 17.105750 -1.724890 -4.496390 7.512560 -5.599154 -14.942872 13.413176 2.773580 7.779797 0.713576 1.098142 -3.675690 5.530010 10.022682 0.312751 3.905796 3.174215 0.189760 0.242430 0.223640 18.292785 -11.621254 3.296446 -4.576757 -1.573583 0.130225 5.879469 -4.683710 6.285547 -0.415945 -3.989630 2.903532 0.022810 -0.185390 0.002710 -4.107692 -0.305304 -8.112974 14.803129 3.090392 11.573883 -3.138380 4.822934 13.378834 2.749206 -0.736576 -19.142892 -3.789072 -5.902795 46.467352 -0.230450 -7.411260 -3.091440 -12.156267 -22.055631 8.285875 -11.488876 1.397798 -4.496830 -36.987626 -49.412196 15.791976 -3.208063 3.439617 0.117050 -0.177940 0.170720 -0.062400 7.280366 26.515078 16.255661 19.757273 -4.892353 -5.627000 36.083112 37.010463 7.643813 2.505286 -1.672919 0.119850 -0.081060 -0.159830 0.060890 
1.152560 17.111240 -1.752970 -4.196141 8.080135 -6.653232 -14.942448 13.466085 2.793178 7.413719 0.861450 1.724350 -3.247593 5.570557 10.686351 0.299107 3.974008 3.155846 0.171050 0.219690 0.198470 18.266786 -11.741274 3.201105 -5.602214 -1.468719 -0.178633 5.909798 -4.968765 8.426292 -0.391842 -4.041506 2.877237 0.023340 -0.163740 -0.009660 -4.098849 -0.247405 -8.088273 14.783828 3.159415 12.809433 -3.267584 5.157215 14.288289 2.630983 -0.675247 -19.378556 -3.606095 -6.529780 46.216813 0.750770 -8.652230 -3.623480 -11.632628 -22.682360 8.025036 -10.068584 0.641578 -4.783540 -29.702682 -47.265058 12.151479 -3.194631 3.362987 0.128670 -0.181460 0.155060 -0.068660 7.045325 27.273142 16.675058 18.452748 -4.853301 -5.620295 30.395960 36.118969 6.157176 2.455902 -1.621878 0.097770 -0.054640 -0.134020 0.063270 
1.180180 17.103970 -1.788800 -3.521293 9.569368 -7.734695 -14.971399 13.383931 2.758943 6.357620 1.034259 2.534249 -1.971575 5.321037 11.050172 0.293608 3.961036 3.187698 0.154580 0.216320 0.152070 18.249722 -11.912052 3.067742 -6.525373 -1.344844 -0.516393 5.484623 -5.187851 10.763925 -0.348954 -4.178366 2.835303 0.043010 -0.095200 -0.005060 -4.079118 0.107016 -7.940383 13.320566 3.367822 13.562085 -2.551041 5.066042 17.092949 2.349373 0.089762 -19.385257 -1.370130 -8.123859 42.830455 1.269660 -9.762090 -3.417490 -9.765853 -23.945648 7.956516 -8.794016 -0.714935 -5.457417 -21.217171 -44.900092 8.320554 -3.212117 3.312723 0.068100 -0.130640 0.101610 -0.050670 5.874210 28.186447 16.939808 17.098271 -2.941927 -5.172673 23.759238 34.189406 4.282795 2.390850 -1.609648 0.088480 -0.036360 -0.117690 0.091110 
1.214560 17.101550 -1.825700 -3.215586 10.339591 -8.859103 -14.946407 13.294792 2.728964 6.096343 1.219072 3.217173 -1.910217 5.439156 11.703763 0.296558 4.053782 3.164704 0.165620 0.236900 0.125900 18.274725 -12.060326 2.961356 -7.823841 -1.128829 -1.020725 6.284130 -5.671024 13.223475 -0.337682 -4.384348 2.753254 0.072800 -0.062560 -0.000750 -4.178516 0.442018 -7.847876 13.288988 3.352845 14.395119 -2.860918 5.176194 19.802859 2.292989 0.485991 -19.706589 -0.074962 -9.416205 40.568162 1.893710 -11.023900 -3.915750 -8.194463 -24.975068 7.872489 -7.070030 -1.881150 -5.679954 -13.169997 -41.481933 5.114315 -3.216576 3.253700 0.034950 -0.110220 0.071650 -0.034850 4.525121 29.304307 17.425285 16.046112 -0.820499 -4.258499 16.692194 31.158496 2.561918 2.339979 -1.583597 0.088220 -0.026950 -0.110940 0.109550 
1.234900 17.107380 -1.854470 -2.840804 11.276278 -9.768161 -14.976971 13.328864 2.773359 5.260736 1.380683 3.920035 -0.872767 5.230593 11.803128 0.311065 4.025431 3.192872 0.155710 0.242740 0.088700 18.232435 -12.144967 2.868115 -8.131135 -0.894358 -1.673002 5.626891 -5.731698 15.546956 -0.316308 -4.408238 2.753672 0.076900 -0.033920 -0.024910 -4.113154 0.463454 -7.837933 12.477591 3.385230 15.440305 -2.667190 5.309133 21.731826 2.112028 0.789498 -20.701728 0.706245 -10.719917 40.063655 3.226660 -12.848580 -4.533180 -7.055730 -26.012812 8.090905 -5.960848 -2.865605 -5.505403 -5.202437 -36.878082 2.451816 -3.209801 3.133318 0.029120 -0.116560 0.061800 -0.015520 3.837059 30.605496 18.182392 14.787875 0.410346 -3.156288 10.229007 27.584797 1.372664 2.333495 -1.518938 0.079550 0.012950 -0.107670 0.135370 
1.259040 17.113640 -1.881650 -2.560582 11.812489 -10.379984 -14.972789 13.336420 2.810380 4.707156 1.513478 4.250795 -0.588755 5.217989 12.102719 0.324222 4.019806 3.200674 0.151220 0.255430 0.058020 18.216771 -12.227135 2.805750 -8.822120 -0.559005 -2.839166 5.810467 -5.909406 17.537682 -0.295609 -4.447120 2.740697 0.083970 -0.023000 -0.050590 -4.124026 0.546927 -7.861572 12.280010 3.319014 16.337932 -3.186040 5.619128 22.985911 2.035318 1.120932 -21.652378 1.484624 -12.106320 39.825059 4.374620 -14.663750 -5.298240 -6.586177 -26.642890 8.155760 -3.866304 -4.052700 -4.677099 0.566952 -31.254076 1.033304 -3.247087 3.019386 0.024700 -0.130340 0.056290 -0.003530 3.484407 31.533585 18.770471 13.567995 2.228948 -1.481261 4.632606 22.750795 0.629621 2.391691 -1.437469 0.076450 0.042090 -0.106220 0.156050 
1.283790 17.109720 -1.901180 -2.812748 12.331959 -10.703666 -14.970780 13.357435 2.798916 5.018845 1.536304 4.084734 -0.833858 5.324676 12.473893 0.365676 4.026216 3.195790 0.167110 0.275740 0.052990 18.200061 -12.262287 2.802555 -9.099108 -0.256480 -4.121394 6.285904 -6.007634 18.471925 -0.292281 -4.433026 2.719039 0.078120 -0.037590 -0.028830 -4.125649 0.598982 -7.898394 12.476028 3.147127 16.861583 -3.434565 5.599960 23.519828 2.055985 1.526442 -22.460804 2.416751 -13.908101 39.377712 4.802290 -16.625720 -5.833860 -6.155120 -26.785517 8.258727 -2.371436 -4.890860 -3.895193 4.281719 -26.478477 0.336346 -3.295005 2.991076 0.010430 -0.149880 0.076170 0.010770 2.882013 31.926658 19.015553 12.238782 4.462150 0.333747 0.450264 17.422000 0.311380 2.533302 -1.376497 0.114790 0.018820 -0.122220 0.184560 
